<svg xmlns="http://www.w3.org/2000/svg" width="264.227" height="188.989" viewBox="0 0 264.227 188.989"><path d="M798.9,2308.469v12.007h-3.484v-.7a6.16,6.16,0,0,1-3.409.953,5.744,5.744,0,0,1-4.237-1.8,6.175,6.175,0,0,1-1.755-4.437,6.067,6.067,0,0,1,1.755-4.437,5.66,5.66,0,0,1,4.237-1.83,6.161,6.161,0,0,1,3.409.953v-.7Zm-6.317,9.3a3.378,3.378,0,0,0,2.833-1.379v-3.835a3.316,3.316,0,0,0-2.833-1.4,2.863,2.863,0,0,0-2.231.977,3.568,3.568,0,0,0,0,4.688A2.9,2.9,0,0,0,792.585,2317.769Z" transform="translate(-785.724 -2137.252)" fill="#ef3e23"/><path d="M828.864,2295v17.8H825.38V2295Z" transform="translate(-808.643 -2129.557)" fill="#ef3e23"/><path d="M845.724,2295v17.8H842.24V2295Z" transform="translate(-818.459 -2129.557)" fill="#ef3e23"/><path d="M882.663,2311.69l.451,2.983a10.664,10.664,0,0,1-3.23.552,4.531,4.531,0,0,1-3.5-1.416,5.268,5.268,0,0,1-1.32-3.76v-4.287H872.54v-2.924h2.528v-4.287h3.463v4.287h4.333v2.924h-4.333v4.257q0,1.98,2.089,1.98A8.037,8.037,0,0,0,882.663,2311.69Z" transform="translate(-836.1 -2131.624)" fill="#ef3e23"/><path d="M911.359,2300.4a4.887,4.887,0,0,1,3.81,1.579,5.919,5.919,0,0,1,1.454,4.212v6.593h-3.484v-6.292a3.158,3.158,0,0,0-.677-2.18,2.431,2.431,0,0,0-1.905-.752,3.5,3.5,0,0,0-2.632,1.5v7.721H904.44V2295h3.484v6.643a5.344,5.344,0,0,1,3.434-1.245Z" transform="translate(-854.672 -2129.557)" fill="#ef3e23"/><path d="M952.663,2314.23a10.678,10.678,0,0,1-.075,1.5h-8.749a2.811,2.811,0,0,0,3.008,2.131,2.22,2.22,0,0,0,2.031-.9h3.635a4.714,4.714,0,0,1-2.043,2.758,6.59,6.59,0,0,1-3.7,1.028,6.414,6.414,0,0,1-4.663-1.78,6.581,6.581,0,0,1-.025-8.975,6.267,6.267,0,0,1,4.638-1.78,5.745,5.745,0,0,1,4.236,1.671A5.874,5.874,0,0,1,952.663,2314.23Zm-6.041-3.158a2.677,2.677,0,0,0-2.833,2.231h5.431a2.427,2.427,0,0,0-2.582-2.231Z" transform="translate(-875.568 -2137.247)" fill="#ef3e23"/><path d="M997.214,2295v17.8H993.73V2295Z" transform="translate(-906.657 -2129.557)" fill="#ef3e23"/><path d="M1015.671,2308.216a6.266,6.266,0,0,1,4.562,1.78,5.946,5.946,0,0,1,1.83,4.487,6.213,6.213,0,0,1-6.392,6.367,6.3,6.3,0,0,1-4.6-1.8,6.139,6.139,0,0,1-1.83-4.562,5.946,5.946,0,0,1,1.83-4.487A6.4,6.4,0,0,1,1015.671,2308.216Zm0,9.526a2.724,2.724,0,0,0,2.131-.927,3.374,3.374,0,0,0,.836-2.332,3.228,3.228,0,0,0-.836-2.269,2.771,2.771,0,0,0-2.143-.89,2.848,2.848,0,0,0-2.168.89,3.17,3.17,0,0,0-.836,2.268,3.343,3.343,0,0,0,.836,2.332,2.792,2.792,0,0,0,2.181.918Z" transform="translate(-915.689 -2137.25)" fill="#ef3e23"/><path d="M1055.741,2308.82l-5.431,12.008H1047.2l-5.431-12.008h3.685l3.284,7.6,3.284-7.6Z" transform="translate(-934.626 -2137.603)" fill="#ef3e23"/><path d="M1089.4,2314.23a10.733,10.733,0,0,1-.075,1.5h-8.749a2.811,2.811,0,0,0,3.008,2.131,2.22,2.22,0,0,0,2.031-.9h3.635a4.714,4.714,0,0,1-2.043,2.758,6.59,6.59,0,0,1-3.7,1.028,6.415,6.415,0,0,1-4.663-1.78,6.581,6.581,0,0,1-.025-8.975,6.267,6.267,0,0,1,4.638-1.78,5.745,5.745,0,0,1,4.236,1.671A5.874,5.874,0,0,1,1089.4,2314.23Zm-6.041-3.158a2.677,2.677,0,0,0-2.833,2.231h5.431a2.427,2.427,0,0,0-2.582-2.231Z" transform="translate(-955.178 -2137.247)" fill="#ef3e23"/><path d="M1137.3,2311.69l.451,2.983a10.666,10.666,0,0,1-3.234.552,4.546,4.546,0,0,1-3.5-1.416,5.286,5.286,0,0,1-1.316-3.76v-4.287h-2.532v-2.924h2.532v-4.287h3.459v4.287h4.337v2.924h-4.337v4.257q0,1.98,2.089,1.98a8.028,8.028,0,0,0,2.047-.309Z" transform="translate(-984.346 -2131.624)" fill="#ef3e23"/><path d="M1166.009,2300.4a4.887,4.887,0,0,1,3.81,1.579,5.919,5.919,0,0,1,1.454,4.212v6.593h-3.484v-6.292a3.158,3.158,0,0,0-.677-2.18,2.431,2.431,0,0,0-1.905-.752,3.5,3.5,0,0,0-2.632,1.5v7.721h-3.484V2295h3.484v6.643a5.343,5.343,0,0,1,3.434-1.245Z" transform="translate(-1002.931 -2129.557)" fill="#ef3e23"/><path d="M1207.3,2314.23a10.714,10.714,0,0,1-.075,1.5h-8.749a2.811,2.811,0,0,0,3.008,2.131,2.22,2.22,0,0,0,2.03-.9h3.635a4.712,4.712,0,0,1-2.043,2.758,6.59,6.59,0,0,1-3.7,1.028,6.414,6.414,0,0,1-4.663-1.78,6.581,6.581,0,0,1-.025-8.975,6.267,6.267,0,0,1,4.638-1.78,5.745,5.745,0,0,1,4.236,1.671A5.874,5.874,0,0,1,1207.3,2314.23Zm-6.041-3.158a2.677,2.677,0,0,0-2.833,2.231h5.431a2.427,2.427,0,0,0-2.582-2.231Z" transform="translate(-1023.82 -2137.247)" fill="#ef3e23"/><path d="M1241.7,2308.76l-7.6,17.8h-3.66l2.332-5.465-5.849-12.333h3.71l3.886,8.2,3.509-8.2Z" transform="translate(-1042.427 -2137.569)" fill="#ef3e23"/><path d="M1287.359,2307.914a4.888,4.888,0,0,1,3.81,1.579,5.918,5.918,0,0,1,1.454,4.211v6.593h-3.484v-6.292a3.16,3.16,0,0,0-.677-2.181,2.432,2.432,0,0,0-1.905-.752,3.5,3.5,0,0,0-2.632,1.5v7.721h-3.484V2308.29h3.484v.835A5.342,5.342,0,0,1,1287.359,2307.914Z" transform="translate(-1073.581 -2137.073)" fill="#ef3e23"/><path d="M1328.683,2314.23a10.715,10.715,0,0,1-.075,1.5h-8.749a2.811,2.811,0,0,0,3.008,2.131,2.22,2.22,0,0,0,2.031-.9h3.635a4.714,4.714,0,0,1-2.043,2.758,6.59,6.59,0,0,1-3.7,1.028,6.415,6.415,0,0,1-4.663-1.78,6.581,6.581,0,0,1-.025-8.975,6.267,6.267,0,0,1,4.637-1.78,5.745,5.745,0,0,1,4.236,1.671A5.873,5.873,0,0,1,1328.683,2314.23Zm-6.041-3.158a2.677,2.677,0,0,0-2.833,2.231h5.431a2.428,2.428,0,0,0-2.582-2.231Z" transform="translate(-1094.488 -2137.247)" fill="#ef3e23"/><path d="M1363.946,2314.23a10.733,10.733,0,0,1-.075,1.5h-8.761a2.811,2.811,0,0,0,3.008,2.131,2.22,2.22,0,0,0,2.031-.9h3.635a4.714,4.714,0,0,1-2.043,2.758,6.589,6.589,0,0,1-3.7,1.028,6.415,6.415,0,0,1-4.663-1.78,6.581,6.581,0,0,1-.025-8.975,6.267,6.267,0,0,1,4.638-1.78,5.746,5.746,0,0,1,4.237,1.671A5.875,5.875,0,0,1,1363.946,2314.23Zm-6.041-3.158a2.677,2.677,0,0,0-2.833,2.231h5.431a2.427,2.427,0,0,0-2.582-2.231Z" transform="translate(-1115.011 -2137.247)" fill="#ef3e23"/><path d="M1399.792,2295v17.8h-3.484v-.7a6.162,6.162,0,0,1-3.41.953,5.746,5.746,0,0,1-4.236-1.8,6.208,6.208,0,0,1-1.755-4.462,6.035,6.035,0,0,1,1.755-4.412,5.656,5.656,0,0,1,4.236-1.83,6.161,6.161,0,0,1,3.409.952V2295Zm-6.317,15.116a3.319,3.319,0,0,0,2.833-1.4v-3.835a3.381,3.381,0,0,0-2.833-1.379,2.868,2.868,0,0,0-2.231.978,3.284,3.284,0,0,0-.877,2.306,3.464,3.464,0,0,0,.877,2.356,2.865,2.865,0,0,0,2.231.961Z" transform="translate(-1135.566 -2129.557)" fill="#ef3e23"/><path d="M845.9,1987.119l.33-.242a28.727,28.727,0,0,0,16.532,4.746c11.377-.33,20.134-10.148,20.134-21.939,0-11.209-9-19.724-21.771-19.724H824.21v57.3H845.9Zm0-18.5h8.515c3.844,0,6.547,2.289,6.547,5.812,0,3.271-3.192,5.811-7.04,5.811a20.35,20.35,0,0,1-8.022-1.638Z" transform="translate(-807.962 -1928.673)" fill="#fff"/><path d="M999.3,2025.623c7.04,0,13.587-1.145,18.007-3.518l-1.471-13.67c-4.341,2.457-7.7,3.848-13.344,3.848-5.974,0-11.214-2.294-12.2-6.468h31.564a27.535,27.535,0,0,0,.33-3.848c0-12.358-10.069-22.427-24.65-22.427-15.141,0-25.293,10.069-25.293,22.92C972.271,2013.917,980.213,2025.623,999.3,2025.623Zm-1.8-32.413c4.42,0,7.52,2.7,7.7,6.794H989.81c.388-4.174,3.417-6.794,7.671-6.794Z" transform="translate(-894.152 -1945.895)" fill="#fff"/><path d="M1135.483,1995.995c-5.565,0-8.836-1.968-8.836-6.877v-8.185H1143.5v-14.159h-16.858V1955.64H1124.6l-23,15.224v9.994h6.71v12.952c0,12.275,9.25,17.923,20.543,17.923a53.341,53.341,0,0,0,15.224-2.21l-.242-15.225A20.468,20.468,0,0,1,1135.483,1995.995Z" transform="translate(-969.46 -1931.98)" fill="#fff"/><path d="M1312.017,2011.307c0-8.022-6.63-10.725-15.224-12.116-7.449-1.229-11.7-1.638-11.7-3.76,0-1.8,2.95-2.782,8.841-2.782a40.883,40.883,0,0,1,15.713,3.438l.083-13.344a65.05,65.05,0,0,0-21.2-3.192c-14.731,0-22.427,5.9-22.427,13.177,0,8.356,7.04,11.281,15.388,12.534,7.286,1.065,11.543,1.554,11.543,3.927,0,1.964-2.456,2.946-8.924,2.946a33.3,33.3,0,0,1-18.086-5.565l-.246,14.978c5.319,2.131,16.294,4.094,22.837,4.094C1303.586,2025.629,1312.017,2020.143,1312.017,2011.307Z" transform="translate(-1065.046 -1945.901)" fill="#fff"/><path d="M57.459,228.041l-6.956,15.3H50.01L39.778,226.32H37.731L27.583,243.345h-.489l-6.96-15.3H0l22.916,45.59h2.95l12.6-22.181h.572l12.6,22.181h3.029l22.916-45.59Z" transform="translate(0 -131.764)" fill="#fff"/><path d="M992.685,2126.71c-16.043,0-26.355,9.9-26.355,23.079,0,13.1,10.311,23,26.355,23s26.275-9.9,26.275-23C1018.96,2136.612,1008.728,2126.71,992.685,2126.71Zm0,31.1a8.02,8.02,0,0,1,0-16.039,8.021,8.021,0,0,1,0,16.039Z" transform="translate(-890.705 -2031.578)" fill="#fff"/><path d="M1122.346,2135.14h-.326l-12.534-7.286h-2.127v43.79h18.5V2152.98c.083-6.626,5.16-11.13,12.6-11.13a14.248,14.248,0,0,1,8.105,2.7l.079-16.043a20.016,20.016,0,0,0-8.51-1.8C1131.513,2126.709,1125.7,2129.654,1122.346,2135.14Z" transform="translate(-972.813 -2031.577)" fill="#fff"/><rect width="18.416" height="55.659" transform="translate(179.573 84.407)" fill="#fff"/><path d="M1310.7,2101v20.626h-.489c-3.342-5.975-8.924-9.9-16.369-9.9-11.134,0-19.565,9.9-19.565,22.837,0,12.847,8.515,23.241,19.636,23.241,7.366,0,12.952-4.09,16.206-10.148h.418a33.084,33.084,0,0,1-1.717,9h20.3V2101Zm-8.774,42.4a8.808,8.808,0,0,1,0-17.614,8.817,8.817,0,0,1,.017,17.631Z" transform="translate(-1069.995 -2016.61)" fill="#fff"/><path d="M1219.071,1944.521c19.812,10.445,21.487-33.591,20.384-45.431l-.6-.079c-6.543,17.852-6.334,25.523-20.568,39.222C1216.364,1940.367,1216.677,1942.874,1219.071,1944.521Z" transform="translate(-1036.665 -1899.01)" fill="#fff"/><path d="M1280.943,1899.25l-1.2,19.147C1282.034,1915.92,1282.878,1901.519,1280.943,1899.25Z" transform="translate(-1073.174 -1899.15)" fill="#fff"/><path d="M1288.5,1911c-.514,3.9-1.04,7.871-1.554,11.757C1289.227,1921.541,1290.368,1913.118,1288.5,1911Z" transform="translate(-1077.371 -1905.991)" fill="#fff"/></svg>